<svg width="13" height="17" viewBox="0 0 13 17" fill="none" xmlns="http://www.w3.org/2000/svg">
<path d="M7.46455 0.147826C7.17237 0 6.88019 0 6.588 0C6.29582 0 6.00364 0.147826 5.85754 0.295652C5.56536 0.443478 5.41927 0.73913 5.27317 1.03478L0.744324 15.6696C0.744324 15.8174 0.744324 15.9652 0.744324 16.113C0.744324 16.4087 0.890411 16.7043 1.0365 16.8522C1.1826 17 1.47479 17.1478 1.91306 17.1478C2.20525 17.1478 2.35134 17.1478 2.64352 17C2.93571 16.8522 3.08179 16.7043 3.08179 16.4087L4.10444 13.1565H9.36375L10.3864 16.4087C10.5325 16.7043 10.6786 16.8522 10.8247 17C10.9708 17.1478 11.263 17.1478 11.409 17.1478C11.7012 17.1478 11.9934 17 12.2856 16.8522C12.4317 16.7043 12.5778 16.4087 12.5778 16.113C12.5778 15.9652 12.5778 15.9652 12.5778 15.8174L8.04892 1.18261C7.90283 0.591304 7.75674 0.295652 7.46455 0.147826ZM4.6888 10.6435L6.588 4.28696L8.4872 10.6435H4.6888Z" fill="#272524"/>
</svg>
