<svg width="11" height="17" viewBox="0 0 11 17" fill="none" xmlns="http://www.w3.org/2000/svg">
<path d="M1.56903 16.8522H8.87362C9.31189 16.8522 9.60408 16.7043 9.75017 16.5565C9.89626 16.2609 10.0424 16.113 10.0424 15.8174C10.0424 15.5217 9.89626 15.2261 9.75017 15.0783C9.60408 14.7826 9.31189 14.7826 8.87362 14.7826H2.73776V9.46087H6.97442C7.4127 9.46087 7.70489 9.31304 7.85098 9.16522C7.99707 8.86956 8.14316 8.72174 8.14316 8.42609C8.14316 8.13043 7.99707 7.83478 7.85098 7.68696C7.70489 7.3913 7.4127 7.3913 6.97442 7.3913H2.73776V2.51304H8.87362C9.31189 2.51304 9.60408 2.36522 9.75017 2.21739C9.89626 1.92174 10.0424 1.77391 10.0424 1.47826C10.0424 1.18261 9.89626 0.886956 9.75017 0.73913C9.60408 0.443478 9.31189 0.443478 8.87362 0.443478H1.56903C1.27684 0.443478 0.984658 0.591304 0.838566 0.73913C0.546382 1.03478 0.546387 1.18261 0.546387 1.47826V15.9652C0.546387 16.2609 0.692474 16.5565 0.838566 16.7043C0.984658 16.7043 1.27684 16.8522 1.56903 16.8522Z" fill="#272524"/>
</svg>
