<svg width="11" height="17" viewBox="0 0 11 17" fill="none" xmlns="http://www.w3.org/2000/svg">
<path d="M3.91602 2.95652C4.35429 2.51304 4.93866 2.21739 5.52303 2.21739H5.81521C6.39958 2.21739 6.98395 2.36522 7.42222 2.66087C7.8605 2.95652 8.15268 3.4 8.15268 3.84348C8.15268 4.28696 8.29878 4.43478 8.59096 4.58261C8.88315 4.73043 9.02924 4.87826 9.32142 4.87826C9.61361 4.87826 9.90579 4.73043 10.0519 4.58261C10.3441 4.43478 10.3441 4.13913 10.3441 3.69565V3.84348C10.3441 3.25217 10.198 2.8087 9.90579 2.36522C9.61361 1.92174 9.32142 1.47826 8.88314 1.18261C8.44487 0.886957 8.00659 0.591304 7.42222 0.443478C7.13004 0.147826 6.54567 0 5.81521 0H5.52303C4.93866 0 4.2082 0.147826 3.76992 0.295652C3.18556 0.591304 2.74728 0.886956 2.309 1.33043C1.87073 1.77391 1.57855 2.21739 1.28636 2.8087C0.994177 3.4 0.848083 3.9913 0.848083 4.58261V12.2696C0.848083 12.8609 0.994177 13.6 1.28636 14.0435C1.57855 14.6348 1.87073 15.0783 2.309 15.5217C2.74728 15.9652 3.18556 16.2609 3.76992 16.5565C4.35429 16.8522 4.93866 16.8522 5.66912 16.8522H5.9613C6.54567 16.8522 7.27613 16.7043 7.71441 16.4087C8.29878 16.113 8.73705 15.8174 9.17533 15.3739C9.61361 14.9304 9.90579 14.487 10.198 13.8957C10.4902 13.3043 10.6362 12.713 10.6362 11.9739V8.72174C10.6362 8.42609 10.4902 8.13043 10.3441 7.83478C10.0519 7.53913 9.90579 7.53913 9.46751 7.53913H6.39958C5.96131 7.53913 5.66912 7.68696 5.52303 7.83478C5.37694 8.13043 5.23084 8.27826 5.23084 8.57391C5.23084 8.86957 5.37694 9.16522 5.52303 9.31304C5.66912 9.6087 5.96131 9.6087 6.39958 9.6087H8.29878V12.1217C8.29878 12.4174 8.29878 12.713 8.15268 13.0087C8.00659 13.3043 7.8605 13.6 7.56832 13.7478C7.42222 13.8957 7.13004 14.1913 6.83786 14.3391C6.54567 14.487 6.25349 14.487 5.9613 14.487H5.66912C5.08475 14.487 4.50038 14.1913 4.06211 13.7478C3.62383 13.3043 3.33165 12.713 3.33165 12.1217V4.58261C3.18556 3.9913 3.47774 3.4 3.91602 2.95652Z" fill="#272524"/>
</svg>
