<svg width="13" height="17" viewBox="0 0 13 17" fill="none" xmlns="http://www.w3.org/2000/svg">
<path d="M10.3491 16.7043C10.6413 16.8522 10.7874 17 11.0796 17C11.3718 17 11.664 16.8522 11.8101 16.7043C12.1022 16.5565 12.1022 16.2609 12.1022 15.8174V1.18261C12.1022 0.886957 11.9562 0.591304 11.8101 0.443478C11.8101 0.147826 11.5179 0 11.2257 0H10.9335C10.6413 0 10.3491 0 10.203 0.147826C10.057 0.295652 9.91087 0.443478 9.76478 0.73913L6.25857 8.72174L2.75236 0.73913C2.46017 0.295652 2.16799 0 1.58362 0H1.29144C0.999254 0 0.70707 0.147826 0.560978 0.295652C0.268794 0.591304 0.268799 0.73913 0.268799 1.03478V15.6696C0.268799 16.113 0.414886 16.4087 0.560978 16.5565C0.853162 16.7043 0.999254 16.8522 1.29144 16.8522C1.58362 16.8522 1.87581 16.7043 2.0219 16.5565C2.31408 16.4087 2.31408 16.113 2.31408 15.6696V5.32174L4.94374 11.3826C5.08983 11.6783 5.23593 11.8261 5.38202 11.9739C5.52811 12.1217 5.8203 12.1217 6.11248 12.1217C6.40466 12.1217 6.55076 12.1217 6.84294 11.9739C7.13512 11.8261 7.28121 11.6783 7.28121 11.3826L9.91087 5.32174V15.6696C10.057 16.2609 10.203 16.5565 10.3491 16.7043Z" fill="#272524"/>
</svg>
