<svg width="11" height="17" viewBox="0 0 11 17" fill="none" xmlns="http://www.w3.org/2000/svg">
<path d="M8.74363 1.33043C8.30535 0.886956 7.86708 0.591304 7.28271 0.295652C6.69834 0.147826 6.11397 0 5.38351 0H5.23742C4.65305 0 3.92259 0.147826 3.33822 0.295652C2.75385 0.591304 2.31558 0.886956 1.8773 1.33043C1.43903 1.77391 1.14684 2.21739 0.854657 2.8087C0.562473 3.4 0.416382 3.9913 0.416382 4.58261V12.2696C0.416382 12.8609 0.562473 13.6 0.854657 14.0435C1.14684 14.6348 1.43903 15.0783 1.8773 15.5217C2.31558 15.9652 2.75385 16.2609 3.33822 16.5565C3.92259 16.8522 4.50696 16.8522 5.09133 16.8522H5.38351C5.96788 16.8522 6.69834 16.7043 7.13661 16.5565C7.72098 16.2609 8.15926 15.9652 8.59754 15.5217C9.03581 15.0783 9.328 14.6348 9.62018 14.0435C9.91236 13.4522 10.0585 12.8609 10.0585 12.2696V4.58261C10.0585 3.9913 9.91236 3.4 9.62018 2.8087C9.47409 2.21739 9.18191 1.77391 8.74363 1.33043ZM7.86707 12.4174C7.86707 13.1565 7.57489 13.6 7.13661 14.0435C6.69834 14.487 6.11397 14.7826 5.5296 14.7826H5.23742C4.65305 14.7826 4.06868 14.487 3.63041 14.0435C3.19213 13.6 2.89995 13.0087 2.89995 12.4174V4.58261C2.89995 3.9913 3.19213 3.4 3.63041 2.95652C4.06868 2.51304 4.65305 2.21739 5.23742 2.21739H5.5296C6.11397 2.21739 6.69834 2.36522 7.13661 2.8087C7.57489 3.25217 7.86707 3.84348 7.86707 4.43478V12.4174Z" fill="#272524"/>
</svg>
