<svg width="10" height="17" viewBox="0 0 10 17" fill="none" xmlns="http://www.w3.org/2000/svg">
<path d="M9.18994 7.83478C9.48213 7.3913 9.62821 6.94783 9.77431 6.50435C9.9204 6.06087 9.9204 5.46956 9.9204 5.02609V4.87826C9.9204 4.28696 9.77431 3.54783 9.48213 3.10435C9.18994 2.51304 8.89776 2.06956 8.45948 1.62609C8.02121 1.18261 7.58293 0.886956 6.99856 0.591304C6.41419 0.295651 5.82982 0.147825 5.24545 0.147825H1.30097C1.00878 0.147825 0.716598 0.295651 0.570506 0.443477C0.278321 0.73913 0.27832 0.886956 0.27832 1.18261V15.8174C0.27832 16.2609 0.424414 16.5565 0.570506 16.7043C0.86269 16.8522 1.00879 17 1.44706 17C1.73925 17 2.03143 16.8522 2.17752 16.7043C2.46971 16.5565 2.4697 16.2609 2.4697 15.8174V9.75652H4.3689L7.43684 16.4087C7.58293 16.7043 7.72902 16.8522 7.87511 16.8522C8.0212 17 8.1673 17 8.45948 17C8.89776 17 9.18994 16.8522 9.33603 16.7043C9.48212 16.5565 9.62822 16.2609 9.62822 15.8174C9.62822 15.6696 9.62822 15.5217 9.48213 15.3739L6.70638 9.6087C7.43684 9.46087 7.87511 9.16522 8.31339 8.86957C8.60557 8.57391 8.89776 8.27826 9.18994 7.83478ZM7.72902 5.02609C7.72902 5.61739 7.58293 6.20869 7.14465 6.65217C6.70637 7.09565 6.12201 7.3913 5.53764 7.3913H2.6158V2.51304H5.39154C5.97591 2.51304 6.56028 2.8087 6.99856 3.25217C7.43684 3.69565 7.72902 4.28696 7.72902 5.02609Z" fill="#272524"/>
</svg>
